<svg width="177" height="24" viewBox="0 0 177 24" fill="none" xmlns="http://www.w3.org/2000/svg">
<path d="M11.288 23.416C9.77333 23.416 8.34933 23.1173 7.016 22.52C5.68267 21.912 4.50933 21.08 3.496 20.024C2.49333 18.9573 1.704 17.72 1.128 16.312C0.562667 14.904 0.28 13.4 0.28 11.8C0.28 10.2 0.562667 8.696 1.128 7.288C1.704 5.88 2.49333 4.648 3.496 3.592C4.50933 2.52533 5.68267 1.69333 7.016 1.096C8.34933 0.487998 9.77333 0.183998 11.288 0.183998C13.1013 0.183998 14.7707 0.605331 16.296 1.448C17.8213 2.29067 19.0853 3.41067 20.088 4.808L17.128 6.392C16.4347 5.51733 15.576 4.81867 14.552 4.296C13.528 3.77333 12.44 3.512 11.288 3.512C10.2213 3.512 9.224 3.73067 8.296 4.168C7.368 4.60533 6.552 5.20267 5.848 5.96C5.144 6.71733 4.59467 7.59733 4.2 8.6C3.80533 9.60267 3.608 10.6693 3.608 11.8C3.608 12.9413 3.80533 14.0133 4.2 15.016C4.59467 16.008 5.144 16.888 5.848 17.656C6.56267 18.4133 7.384 19.0107 8.312 19.448C9.24 19.8747 10.232 20.088 11.288 20.088C12.4613 20.088 13.5547 19.8267 14.568 19.304C15.592 18.7707 16.4453 18.0667 17.128 17.192L20.088 18.808C19.0853 20.2053 17.8213 21.3253 16.296 22.168C14.7707 23 13.1013 23.416 11.288 23.416ZM23.2013 23V0.599998H26.5293V19.672H36.1773V23H23.2013ZM40.1813 23V0.599998H43.5093V23H40.1813ZM58.1943 23.416C56.6796 23.416 55.2556 23.1173 53.9223 22.52C52.5889 21.912 51.4156 21.08 50.4023 20.024C49.3996 18.9573 48.6103 17.72 48.0343 16.312C47.4689 14.904 47.1863 13.4 47.1863 11.8C47.1863 10.2 47.4689 8.696 48.0343 7.288C48.6103 5.88 49.3996 4.648 50.4023 3.592C51.4156 2.52533 52.5889 1.69333 53.9223 1.096C55.2556 0.487998 56.6796 0.183998 58.1943 0.183998C60.0076 0.183998 61.6769 0.605331 63.2023 1.448C64.7276 2.29067 65.9916 3.41067 66.9943 4.808L64.0343 6.392C63.3409 5.51733 62.4823 4.81867 61.4583 4.296C60.4343 3.77333 59.3463 3.512 58.1943 3.512C57.1276 3.512 56.1303 3.73067 55.2023 4.168C54.2743 4.60533 53.4583 5.20267 52.7543 5.96C52.0503 6.71733 51.5009 7.59733 51.1063 8.6C50.7116 9.60267 50.5143 10.6693 50.5143 11.8C50.5143 12.9413 50.7116 14.0133 51.1063 15.016C51.5009 16.008 52.0503 16.888 52.7543 17.656C53.4689 18.4133 54.2903 19.0107 55.2183 19.448C56.1463 19.8747 57.1383 20.088 58.1943 20.088C59.3676 20.088 60.4609 19.8267 61.4743 19.304C62.4983 18.7707 63.3516 18.0667 64.0343 17.192L66.9943 18.808C65.9916 20.2053 64.7276 21.3253 63.2023 22.168C61.6769 23 60.0076 23.416 58.1943 23.416ZM85.7875 23H81.4675L74.7955 13.768L73.4355 15.416V23H70.1075V0.599998H73.4355V10.248L81.4995 0.599998H85.8515L76.9875 11.176L85.7875 23ZM104.1 23H99.78L93.108 13.768L91.748 15.416V23H88.42V0.599998H91.748V10.248L99.812 0.599998H104.164L95.3 11.176L104.1 23ZM107.213 23V0.599998H110.541V23H107.213ZM125.226 23.416C123.711 23.416 122.287 23.1173 120.954 22.52C119.62 21.912 118.447 21.08 117.434 20.024C116.431 18.9573 115.642 17.72 115.066 16.312C114.5 14.904 114.218 13.4 114.218 11.8C114.218 10.2 114.5 8.696 115.066 7.288C115.642 5.88 116.431 4.648 117.434 3.592C118.447 2.52533 119.62 1.69333 120.954 1.096C122.287 0.487998 123.711 0.183998 125.226 0.183998C127.039 0.183998 128.708 0.605331 130.234 1.448C131.759 2.29067 133.023 3.41067 134.026 4.808L131.066 6.392C130.372 5.51733 129.514 4.81867 128.49 4.296C127.466 3.77333 126.378 3.512 125.226 3.512C124.159 3.512 123.162 3.73067 122.234 4.168C121.306 4.60533 120.49 5.20267 119.786 5.96C119.082 6.71733 118.532 7.59733 118.138 8.6C117.743 9.60267 117.546 10.6693 117.546 11.8C117.546 12.9413 117.743 14.0133 118.138 15.016C118.532 16.008 119.082 16.888 119.786 17.656C120.5 18.4133 121.322 19.0107 122.25 19.448C123.178 19.8747 124.17 20.088 125.226 20.088C126.399 20.088 127.492 19.8267 128.506 19.304C129.53 18.7707 130.383 18.0667 131.066 17.192L134.026 18.808C133.023 20.2053 131.759 21.3253 130.234 22.168C128.708 23 127.039 23.416 125.226 23.416ZM152.819 23H148.499L141.827 13.768L140.467 15.416V23H137.139V0.599998H140.467V10.248L148.531 0.599998H152.883L144.019 11.176L152.819 23ZM162.904 23.416C161.677 23.416 160.499 23.224 159.368 22.84C158.237 22.456 157.251 21.9067 156.408 21.192C155.565 20.4667 154.963 19.608 154.6 18.616L157.72 17.448C157.901 17.96 158.248 18.4187 158.76 18.824C159.283 19.2187 159.901 19.528 160.616 19.752C161.341 19.976 162.104 20.088 162.904 20.088C163.757 20.088 164.557 19.9493 165.304 19.672C166.061 19.3947 166.669 19.0107 167.128 18.52C167.597 18.0293 167.832 17.4533 167.832 16.792C167.832 16.1093 167.587 15.5493 167.096 15.112C166.616 14.6747 165.997 14.328 165.24 14.072C164.493 13.816 163.715 13.624 162.904 13.496C161.336 13.24 159.928 12.8667 158.68 12.376C157.443 11.8853 156.461 11.1973 155.736 10.312C155.021 9.42667 154.664 8.27467 154.664 6.856C154.664 5.52267 155.043 4.36 155.8 3.368C156.568 2.376 157.576 1.608 158.824 1.064C160.083 0.509332 161.443 0.231998 162.904 0.231998C164.109 0.231998 165.272 0.423999 166.392 0.807999C167.523 1.18133 168.515 1.73067 169.368 2.456C170.232 3.17067 170.851 4.04 171.224 5.064L168.072 6.2C167.891 5.67733 167.544 5.224 167.032 4.84C166.52 4.44533 165.901 4.136 165.176 3.912C164.461 3.688 163.704 3.576 162.904 3.576C162.051 3.56533 161.251 3.704 160.504 3.992C159.768 4.26933 159.165 4.65333 158.696 5.144C158.227 5.63467 157.992 6.20533 157.992 6.856C157.992 7.656 158.211 8.264 158.648 8.68C159.085 9.096 159.672 9.40533 160.408 9.608C161.155 9.8 161.987 9.976 162.904 10.136C164.376 10.3707 165.736 10.76 166.984 11.304C168.243 11.848 169.251 12.5733 170.008 13.48C170.776 14.376 171.16 15.48 171.16 16.792C171.16 18.1147 170.776 19.2773 170.008 20.28C169.251 21.272 168.243 22.0453 166.984 22.6C165.736 23.144 164.376 23.416 162.904 23.416Z" fill="white"/>
<path d="M175.149 23.416C174.658 23.416 174.242 23.2453 173.901 22.904C173.57 22.5627 173.405 22.1467 173.405 21.656C173.405 21.176 173.57 20.7653 173.901 20.424C174.242 20.0827 174.658 19.912 175.149 19.912C175.64 19.912 176.056 20.0827 176.397 20.424C176.738 20.7653 176.909 21.176 176.909 21.656C176.909 22.1467 176.738 22.5627 176.397 22.904C176.056 23.2453 175.64 23.416 175.149 23.416Z" fill="#DD5746"/>
</svg>
